# xmcd
#
# Track frame offsets:
# 150
# 22153
# 38443
# 53189
# 69529
# 84047
# 101437
# 117000
# 130142
# 146939
# 168641
# 179200
# 193172
# 208949
# 223310
# 235375
# 249163
# 262137
# 275903
# 289616
# 300485
# 311525
#
# Disc length: 4398 seconds
#
#
# Revision: 0
# Processed by: cddbd v1.5.2PL0 Copyright (c) Steve Scherf et al.
# Submitted via: FreeRIP 2.96 
#
DISCID=57112c16
DTITLE=varios - veleiro de sucessos
DYEAR=2001
DGENRE=Ballad
TTITLE0=tu-julio cezar
TTITLE1=hey-josé augusto
TTITLE2=impossivel acreditar que perdi voce-marcio greick
TTITLE3=indiferença-jerry adriani
TTITLE4=monotonia-amado batista
TTITLE5=no tocafitas do meu carro-barto galeno
TTITLE6=deixe me outro dia-agnaldo timoteo
TTITLE7=benzinho-jose roberto
TTITLE8=meu primeiro amor-jose augusto
TTITLE9=o mais importante e o verdadeiro amor-marcio greick
TTITLE10=a namorada que eu sonhei-julio cezar
TTITLE11=tive tantas confiancas-jose roberto
TTITLE12=toque esta musica outra vez-jerry adriani
TTITLE13=um amor vai outro vem-jose roberto
TTITLE14=serenata-amado batsita
TTITLE15=porque brigamois-diana
TTITLE16=meu grito-agnaldo timoteo
TTITLE17=a rua que voce morava-gilberto lemos
TTITLE18=cade voce-odair jose
TTITLE19=nosso amor ja virou um lixo-carlos alexandre
TTITLE20=vem-reginaldo rossi
TTITLE21=india-paulo sergio
EXTD=
EXTT0=
EXTT1=
EXTT2=
EXTT3=
EXTT4=
EXTT5=
EXTT6=
EXTT7=
EXTT8=
EXTT9=
EXTT10=
EXTT11=
EXTT12=
EXTT13=
EXTT14=
EXTT15=
EXTT16=
EXTT17=
EXTT18=
EXTT19=
EXTT20=
EXTT21=
PLAYORDER=
